<svg width="96" height="96" viewBox="0 0 96 96" fill="none" xmlns="http://www.w3.org/2000/svg">
<g clip-path="url(#clip0_277_7297)">
<mask id="mask0_277_7297" style="mask-type:luminance" maskUnits="userSpaceOnUse" x="0" y="0" width="96" height="96">
<path d="M96 48C96 21.4903 74.5097 0 48 0C21.4903 0 0 21.4903 0 48C0 74.5097 21.4903 96 48 96C74.5097 96 96 74.5097 96 48Z" fill="white"/>
</mask>
<g mask="url(#mask0_277_7297)">
<path d="M96 48C96 21.4903 74.5097 0 48 0C21.4903 0 0 21.4903 0 48C0 74.5097 21.4903 96 48 96C74.5097 96 96 74.5097 96 48Z" fill="white"/>
<path d="M48 96C74.5097 96 96 74.5097 96 48C96 21.4903 74.5097 0 48 0C21.4903 0 0 21.4903 0 48C0 74.5097 21.4903 96 48 96Z" fill="url(#paint0_linear_277_7297)"/>
<path d="M47.1577 27.0249C67.1004 9.01037 88.0286 19.5188 96 27.0249V95.9999H0V27.0249C7.40988 34.531 27.2151 45.0395 47.1577 27.0249Z" fill="url(#paint1_linear_277_7297)" fill-opacity="0.5"/>
<path d="M48.842 62.7559C28.8994 49.3874 7.97129 57.1859 0 62.7559V95.9999H96V62.7559C88.5901 68.3263 68.7847 76.1248 48.842 62.7559Z" fill="url(#paint2_linear_277_7297)" fill-opacity="0.5"/>
<path d="M29.8876 73.0504C30.1924 73.0504 32.9389 72.9798 35.6404 70.5055C35.6404 70.5076 35.6414 70.5055 35.6404 70.5055C36.2208 69.9738 37.8096 68.8725 39.0084 68.8725C40.2859 68.8725 41.9104 70.0827 42.3767 70.5055C42.6616 70.7661 45.2396 73.0504 48.1297 73.0504C51.0195 73.0504 53.5978 70.7661 53.8837 70.5034C54.4641 69.9717 56.0519 68.8725 57.2507 68.8725C58.5282 68.8725 60.1527 70.0827 60.619 70.5055C60.9036 70.7661 63.4817 73.0504 66.3715 73.0504C67.0158 73.0504 67.6736 72.9521 68.3818 72.7471C69.1092 72.5399 69.6065 71.9018 69.6065 71.1783V42.5095C69.6065 31.626 59.9724 22.771 48.1294 22.771C36.2865 22.771 26.6523 31.6263 26.6523 42.5095V71.0994C26.6523 71.806 27.1274 72.4317 27.83 72.6558C28.8888 72.9909 29.6581 73.0419 29.8876 73.0504ZM30.0949 42.509C30.0949 33.4337 38.185 26.0497 48.1297 26.0497C58.0744 26.0497 66.1645 33.4342 66.1645 42.509V69.7603C64.9243 69.6449 63.4439 68.5389 63.0048 68.142C62.7201 67.8793 60.1408 65.5932 57.2507 65.5932C54.3609 65.5932 51.7818 67.8793 51.4982 68.1399C50.9165 68.6717 49.3288 69.7711 48.1297 69.7711C46.8525 69.7711 45.2264 68.5607 44.7627 68.142C44.4783 67.8793 41.8987 65.5932 39.0087 65.5932C36.1199 65.5932 33.5429 67.8775 33.2562 68.1399C31.8387 69.4379 30.4773 69.7046 30.0951 69.7603L30.0949 42.509Z" fill="#003E01"/>
<path d="M41.47 51.0741C41.47 50.6143 41.8426 50.2417 42.3024 50.2417C42.762 50.2417 43.1348 50.6143 43.1348 51.0741C43.1348 52.3467 43.6549 53.5722 44.5888 54.4797C45.524 55.3879 46.7971 55.9023 48.1294 55.9023C49.4618 55.9023 50.7349 55.3879 51.67 54.4797C52.6039 53.5722 53.124 52.3467 53.124 51.0741C53.124 50.6143 53.4969 50.2417 53.9564 50.2417C54.4163 50.2417 54.7889 50.6143 54.7889 51.0741C54.7889 52.8042 54.0812 54.4582 52.8298 55.6741C51.5792 56.889 49.888 57.5672 48.1294 57.5672C46.3709 57.5672 44.6796 56.889 43.429 55.6741C42.1777 54.4582 41.47 52.8042 41.47 51.0741Z" fill="#003E01"/>
<path d="M45.4654 44.7474C45.4654 45.2072 45.0928 45.5798 44.633 45.5798C44.1734 45.5798 43.8005 45.2072 43.8005 44.7474C43.8005 43.8306 43.4225 42.9446 42.7389 42.2861C42.0542 41.627 41.1193 41.2513 40.1378 41.2513C39.1566 41.2513 38.2214 41.627 37.5367 42.2861C36.8531 42.9446 36.475 43.8306 36.475 44.7474C36.475 45.2072 36.1024 45.5798 35.6426 45.5798C35.1828 45.5798 34.8102 45.2072 34.8102 44.7474C34.8102 43.3682 35.3795 42.0522 36.3819 41.087C37.383 40.1229 38.7348 39.5862 40.1378 39.5862C41.541 39.5862 42.8926 40.1229 43.894 41.087C44.8964 42.0522 45.4654 43.3682 45.4654 44.7474Z" fill="#003E01"/>
<path d="M60.7825 44.7474C60.7825 45.2072 60.4099 45.5798 59.9501 45.5798C59.4903 45.5798 59.1177 45.2072 59.1177 44.7474C59.1177 43.8306 58.7396 42.9446 58.056 42.2861C57.3713 41.627 56.4362 41.2513 55.4549 41.2513C54.4737 41.2513 53.5386 41.627 52.8539 42.2861C52.1702 42.9446 51.7922 43.8306 51.7922 44.7474C51.7922 45.2072 51.4196 45.5798 50.9598 45.5798C50.4999 45.5798 50.1273 45.2072 50.1273 44.7474C50.1273 43.3682 50.6966 42.0522 51.6988 41.087C52.7002 40.1229 54.0519 39.5862 55.4549 39.5862C56.8579 39.5862 58.2097 40.1229 59.2111 41.087C60.2135 42.0522 60.7825 43.3682 60.7825 44.7474Z" fill="#003E01"/>
</g>
</g>
<defs>
<linearGradient id="paint0_linear_277_7297" x1="48" y1="0" x2="48" y2="96" gradientUnits="userSpaceOnUse">
<stop stop-color="#A9EFA2"/>
<stop offset="1" stop-color="white"/>
</linearGradient>
<linearGradient id="paint1_linear_277_7297" x1="48" y1="17.0781" x2="48" y2="95.9999" gradientUnits="userSpaceOnUse">
<stop stop-color="#73D475" stop-opacity="0.3"/>
<stop offset="1" stop-color="white"/>
</linearGradient>
<linearGradient id="paint2_linear_277_7297" x1="48" y1="55.3746" x2="48" y2="95.9999" gradientUnits="userSpaceOnUse">
<stop stop-color="#9EE59C" stop-opacity="0.3"/>
<stop offset="1" stop-color="#33AB23"/>
</linearGradient>
<clipPath id="clip0_277_7297">
<rect width="96" height="96" fill="white"/>
</clipPath>
</defs>
</svg>
